<svg width="9" height="11" viewBox="0 0 9 11" fill="none" xmlns="http://www.w3.org/2000/svg">
<path d="M0.914 10.612C0.680667 10.612 0.489333 10.5513 0.34 10.43C0.190667 10.2993 0.102 10.1407 0.074 9.954C0.0553333 9.758 0.120667 9.562 0.27 9.366L3.476 5.096V5.866L0.424 1.778C0.274667 1.57267 0.209333 1.37667 0.228 1.19C0.246667 0.993999 0.330667 0.835333 0.48 0.713999C0.629333 0.583332 0.816 0.517999 1.04 0.517999C1.22667 0.517999 1.39 0.564666 1.53 0.658C1.67933 0.742 1.82867 0.886666 1.978 1.092L4.498 4.564H3.924L6.43 1.092C6.57933 0.886666 6.724 0.742 6.864 0.658C7.01333 0.564666 7.186 0.517999 7.382 0.517999C7.61533 0.517999 7.80667 0.578666 7.956 0.699999C8.10533 0.821333 8.18933 0.98 8.208 1.176C8.22667 1.36267 8.15667 1.56333 7.998 1.778L4.946 5.866V5.096L8.138 9.366C8.28733 9.562 8.35267 9.758 8.334 9.954C8.31533 10.1407 8.23133 10.2993 8.082 10.43C7.93267 10.5513 7.73667 10.612 7.494 10.612C7.31667 10.612 7.15333 10.5653 7.004 10.472C6.864 10.3787 6.71467 10.2293 6.556 10.024L3.896 6.384H4.512L1.866 10.024C1.71667 10.2293 1.56733 10.3787 1.418 10.472C1.26867 10.5653 1.10067 10.612 0.914 10.612Z" fill="#868E96"/>
</svg>
